<svg xmlns="http://www.w3.org/2000/svg" width="64" height="64" viewBox="0 0 64 64"><g stroke="#33445e" stroke-width="2.4" stroke-linecap="round" stroke-linejoin="round"><path d="M18 34Q0 38 7 49q5 5 12-7-12 19 0 18 7-1 9-16-3 19 6 15 4-2 4-15 5 18 13 12 5-4-7-15 14 13 15 2 0-6-14-9Z" fill="#ca83a4"/><ellipse cx="32" cy="24" rx="17" ry="18" fill="#db99b8"/><circle cx="25" cy="27" r="2" fill="#33445e" stroke="none"/><circle cx="39" cy="27" r="2" fill="#33445e" stroke="none"/><path d="M28 34q4 4 8 0" fill="none"/></g></svg>
