<svg xmlns="http://www.w3.org/2000/svg" viewBox="0 0 512 512">
  <defs>
    <linearGradient id="sky" x1="0" y1="0" x2="0" y2="1">
      <stop offset="0" stop-color="#79bdf3"/>
      <stop offset="0.48" stop-color="#f8b27f"/>
      <stop offset="0.72" stop-color="#ffc675"/>
      <stop offset="1" stop-color="#ffad6f"/>
    </linearGradient>
    <linearGradient id="sea" x1="0" y1="0" x2="0" y2="1">
      <stop offset="0" stop-color="#2998d6"/>
      <stop offset="0.55" stop-color="#1475bd"/>
      <stop offset="1" stop-color="#064a93"/>
    </linearGradient>
    <radialGradient id="sun" cx="50%" cy="50%" r="50%">
      <stop offset="0" stop-color="#fffde8"/>
      <stop offset="0.72" stop-color="#fff4bd"/>
      <stop offset="1" stop-color="#ffd978"/>
    </radialGradient>
  </defs>

  <rect width="512" height="512" fill="url(#sky)"/>

  <g fill="#fff0d2" opacity=".72">
    <path d="M0 199c18-14 37-10 49 5 13-9 31-6 40 8 15-4 29 1 39 12H0z"/>
    <path d="M512 223c-16-13-34-10-45 4-13-8-29-5-38 8-14-3-27 2-36 12h119z"/>
  </g>

  <circle cx="214" cy="286" r="66" fill="url(#sun)" opacity=".96"/>

  <path d="M0 315c31-19 59-18 88-3 30-16 59-15 90 2 33-19 66-18 98 0 29-16 60-17 89 0 28-16 55-16 79-2 25-13 48-11 68 2v32H0z" fill="#416c9e" opacity=".88"/>
  <path d="M0 326c35-14 69-11 103 4 35-17 67-18 99-1 36-17 69-15 101 2 34-17 67-17 99 1 41-15 76-11 110 3v34H0z" fill="#315b8f" opacity=".72"/>

  <rect y="328" width="512" height="184" fill="url(#sea)"/>

  <g fill="none" stroke-linecap="round">
    <path d="M0 354c43 12 82 10 120-5 42-17 82-15 121 2 37 16 78 17 123 0 51-20 100-18 148 3" stroke="#74c4ea" stroke-width="13" opacity=".55"/>
    <path d="M-10 398c45 18 89 17 131 1 38-15 76-14 113 2 43 18 84 17 124-1 52-23 105-21 165 4" stroke="#2e94d0" stroke-width="18" opacity=".8"/>
    <path d="M-5 453c45 13 88 12 129-2 45-16 88-14 130 4 42 18 84 18 126 0 43-19 88-19 137-1" stroke="#0d63ad" stroke-width="21" opacity=".95"/>
    <path d="M112 350c48-8 88-4 120 9 30 12 61 12 92 0" stroke="#ffd990" stroke-width="7" opacity=".88"/>
    <path d="M155 381c32-8 59-7 83 3 24 10 49 9 76-2" stroke="#ffd990" stroke-width="6" opacity=".73"/>
    <path d="M187 419c27-7 50-6 69 2 20 8 42 8 66-1" stroke="#ffd990" stroke-width="5" opacity=".55"/>
  </g>

  <g fill="#063d78">
    <path d="M290 316h111l-17 31h-82l-12-31z"/>
    <path d="M313 292h50l12 26h-75z"/>
    <rect x="327" y="273" width="9" height="44" rx="3"/>
    <rect x="331" y="253" width="5" height="22" rx="2"/>
    <path d="M372 316l12-55 4 1-8 54zm12 0 18-49 4 2-14 47z"/>
  </g>

  <g fill="none" stroke="#083e77" stroke-width="7" stroke-linecap="round">
    <path d="M350 184q17-14 34 0"/>
    <path d="M402 156q19-16 38 0"/>
  </g>
</svg>
