<svg xmlns="http://www.w3.org/2000/svg" viewBox="0 0 1024 512"><style>.e{fill:#26364d}.l{fill:none;stroke-linecap:round;stroke-linejoin:round;stroke-width:10}</style>
<g transform="translate(128 128)"><ellipse rx="61" ry="40" fill="#ef7b72"/><path class="l" stroke="#d95f57" d="M-48 17l-38 27M-40 35l-31 35M48 17l38 27M40 35l31 35M-51-13l-35-24M51-13l35-24"/><circle cx="-74" cy="-43" r="15" fill="#ef7b72"/><circle cx="74" cy="-43" r="15" fill="#ef7b72"/><circle class="e" cx="-20" cy="-6" r="6"/><circle class="e" cx="20" cy="-6" r="6"/><path class="l" stroke="#b94a43" d="M-13 14q13 11 26 0"/></g>
<g transform="translate(384 128)"><path d="M-47 0l-48-36v72z" fill="#df6c84"/><ellipse cx="14" rx="70" ry="43" fill="#f08aa0"/><circle class="e" cx="54" cy="-10" r="6"/><path class="l" stroke="#c95570" d="M65 9q9 4 17 0M-8-20q9 9 18 0M-4 4q9 9 18 0"/></g>
<g transform="translate(640 128)"><ellipse cy="-18" rx="45" ry="52" fill="#ef796c"/><path class="l" stroke="#ef796c" d="M-35 25q-25 35-8 51M-15 31q-13 39 5 50M8 31q5 38 20 48M28 27q23 31 8 50"/><circle class="e" cx="-16" cy="-20" r="6"/><circle class="e" cx="16" cy="-20" r="6"/><path class="l" stroke="#c95f58" d="M-10-2q10 8 20 0"/></g>
<g transform="translate(896 128)"><path d="M0-66l-34 28-18 48 13 51 39 23 39-23 13-51-18-48z" fill="#9876d2"/><path d="M-34-38l-27 18 19 12M34-38l27 18-19 12" fill="#b59be0"/><path class="l" stroke="#9876d2" d="M-27 57q-18 26-5 39M-9 68q-7 22 4 31M9 68q7 22-4 31M27 57q18 26 5 39"/><circle class="e" cx="-16" cy="-11" r="6"/><circle class="e" cx="16" cy="-11" r="6"/></g>
<g transform="translate(128 384)"><path d="M0-69l-33 37 33 16 33-16z" fill="#5ea6d9"/><ellipse cy="9" rx="29" ry="57" fill="#6fb9e8"/><path class="l" stroke="#6fb9e8" d="M-19 52q-16 27-5 39M-6 59q-7 22 2 32M6 59q7 22-2 32M19 52q16 27 5 39"/><circle class="e" cx="-11" cy="4" r="5"/><circle class="e" cx="11" cy="4" r="5"/></g>
<g transform="translate(384 384)"><path d="M-48 3l-48-34v68z" fill="#607b9f"/><ellipse cx="13" cy="3" rx="72" ry="42" fill="#7892b3"/><path d="M-24-34l18-30 16 27 19-24 13 32" fill="#667f9f"/><circle class="e" cx="56" cy="-8" r="6"/><path class="l" stroke="#536d8e" d="M65 11q10 4 17 0M-7-15q10 9 20 0M2 10q10 9 20 0"/></g>
<g transform="translate(640 384)"><path d="M-53 4l-42-26 6 27-6 27z" fill="#ad9270"/><ellipse cx="12" cy="4" rx="72" ry="43" fill="#c5aa82"/><circle class="e" cx="46" cy="-13" r="6"/><circle class="e" cx="30" cy="-7" r="5"/><path class="l" stroke="#967b5d" d="M56 10q9 4 16 0M-9-13q9 7 18 0"/></g>
<g transform="translate(896 384)"><ellipse cy="-25" rx="44" ry="50" fill="#c9767d"/><path class="l" stroke="#c9767d" d="M-34 17q-27 32-10 52M-14 23q-14 38 3 51M8 23q6 37 22 49M29 17q27 31 10 52"/><circle class="e" cx="-15" cy="-27" r="6"/><circle class="e" cx="15" cy="-27" r="6"/><path class="l" stroke="#a9565e" d="M-9-9q9 7 18 0"/></g></svg>